PathFileType	4	(X/Y/Z)	C:\Users\WrightLab\Desktop\Jo\P2_Trial37.trc
DataRate	CameraRate	NumFrames	NumMarkers	Units	OrigDataRate	OrigDataStartFrame	OrigNumFrames
100.00	100.00	       11	19	mm	100.00	282	       563
Frame#	Time	Headset_Front			Headset_Back			Headset_Left			Headset_Right			Left_Shoulder			Right_Shoulder			Sternum			C7			Left Elbow			Right Elbow			Left Wrist			Right Wrist			Left ASIS			Right ASIS			S2			Left Knee			Right Knee			Left Ankle			Right Ankle			
		X1	Y1	Z1	X2	Y2	Z2	X3	Y3	Z3	X4	Y4	Z4	X5	Y5	Z5	X6	Y6	Z6	X7	Y7	Z7	X8	Y8	Z8	X9	Y9	Z9	X10	Y10	Z10	X11	Y11	Z11	X12	Y12	Z12	X13	Y13	Z13	X14	Y14	Z14	X15	Y15	Z15	X16	Y16	Z16	X17	Y17	Z17	X18	Y18	Z18	X19	Y19	Z19	

282	2.810	-259.10464	1494.31934	457.69388	-338.00861	1710.40710	253.85564	-207.93950	1599.13379	280.80276	-380.02661	1580.08655	436.74933	-245.90276	1451.31079	159.95058	-492.94073	1460.51587	382.45956	-331.58771	1339.34521	322.86139	-454.24213	1449.01550	196.86011	-139.70923	1104.23926	126.39104	-622.90533	1143.09961	422.79422	-92.27563	874.79242	169.26102	-645.25879	909.50610	511.46451	-272.57629	1042.60461	318.11499	-374.91376	1026.24072	408.13858	-483.56915	962.47125	155.10358	-263.22742	453.65408	215.28172	-436.75089	605.80261	512.33331	-316.94800	103.40700	264.95010	-523.44092	256.91965	426.31384	
283	2.820	-253.39874	1495.76331	471.12863	-331.41360	1710.50635	261.04050	-201.90678	1598.97449	288.11182	-373.54227	1580.40710	444.23288	-240.02826	1451.93066	166.82298	-486.36697	1460.98853	390.22610	-325.35388	1339.77209	329.78821	-447.71954	1449.42285	204.39334	-131.84393	1106.23474	135.86632	-617.16846	1143.12988	429.15991	-82.07084	876.51941	181.47591	-640.52295	909.14398	516.65149	-266.66275	1042.91602	323.68304	-367.52060	1026.48950	414.91589	-479.68903	963.56494	163.57912	-262.16409	453.33649	213.32169	-422.87851	611.29370	524.13300	-315.84171	103.98439	265.22888	-505.63272	254.04239	450.98022	
284	2.830	-246.29189	1495.50293	478.15179	-324.88522	1710.87024	268.73242	-195.61351	1599.82361	295.28549	-367.39401	1580.33118	451.26691	-234.54535	1452.01416	173.59178	-479.58716	1461.17456	397.81985	-318.79892	1339.56970	336.19928	-442.51654	1450.39136	212.10757	-123.81229	1107.58228	145.40073	-611.78522	1143.96765	435.92188	-72.77905	879.16089	194.56491	-635.89368	909.52344	522.13190	-259.84775	1042.98889	330.11887	-360.57202	1026.62476	421.99576	-476.01251	963.70532	172.38374	-261.46378	453.13348	212.34071	-409.91086	616.10150	535.19727	-313.79648	103.51515	265.62775	-487.90784	251.59901	472.28952	
285	2.840	-240.25079	1495.28809	485.48123	-318.81223	1711.13757	276.60541	-189.64885	1600.17639	302.12573	-361.44638	1580.11267	458.77429	-228.95554	1451.73547	180.13010	-473.11853	1461.09998	405.45374	-312.19244	1340.20337	343.19653	-436.42642	1450.99634	219.65222	-116.53652	1109.08032	154.97191	-605.70117	1143.41504	442.05978	-63.60886	881.82904	203.74957	-630.98328	909.08179	527.10242	-253.31554	1042.98718	335.24454	-352.95306	1026.52454	428.39682	-471.71069	964.46307	180.94441	-260.98907	452.44199	211.25072	-397.23135	619.75458	544.15540	-311.95032	103.35142	265.97244	-469.35880	248.41515	498.57248	
286	2.850	-235.41454	1495.27332	493.04935	-313.37491	1711.71252	284.41003	-183.47052	1600.36462	310.15054	-355.02951	1580.06555	465.79987	-222.92580	1452.97656	187.49408	-466.38724	1461.17859	413.54715	-305.29276	1340.15808	350.02689	-430.47916	1450.82813	227.21086	-109.02008	1110.58167	164.51468	-600.60651	1144.33472	448.75836	-54.66518	883.96741	217.76227	-626.29810	908.96503	532.47626	-247.38194	1042.48267	341.05173	-346.48254	1026.76123	436.22833	-467.81387	964.75793	189.50584	-260.46854	452.02167	210.15260	-384.95200	621.87854	552.78021	-311.07608	103.43952	265.81696	-452.18356	243.43539	517.78259	
287	2.860	-228.96701	1495.03601	500.16742	-307.18054	1711.88586	291.85590	-177.35562	1600.28735	321.72098	-349.48773	1580.44470	473.45187	-216.82092	1453.04456	194.53703	-459.58194	1461.31189	421.03906	-299.44781	1339.96997	357.74451	-424.25925	1451.07422	234.74821	-100.90733	1111.40320	172.77478	-594.60059	1144.26489	455.17239	-45.86324	886.49872	228.30025	-621.71143	908.25574	538.31873	-241.10370	1041.84131	346.78162	-338.78265	1027.30322	443.43362	-463.59409	965.17145	197.64983	-260.13385	451.78134	208.78862	-373.29160	624.03821	560.74359	-309.44467	102.64072	264.96088	-434.00427	239.38968	539.67462	
288	2.870	-222.44559	1494.77209	507.21710	-301.00327	1711.78320	299.18430	-171.43440	1600.75269	325.56403	-343.58572	1580.03418	480.53067	-211.03799	1452.62073	200.83438	-452.94025	1461.21350	429.21277	-293.07880	1339.90112	365.36331	-418.21231	1451.09790	242.62975	-93.54353	1112.23010	181.59410	-588.94507	1144.23022	461.70407	-37.47651	888.34015	240.96751	-617.31366	908.07159	543.20782	-235.10507	1041.64868	352.90070	-331.03070	1026.38770	450.18182	-459.21460	965.47906	206.19710	-259.66019	450.16574	206.65068	-362.57159	625.06012	567.99927	-308.07925	102.45807	264.44531	-417.68970	233.76201	560.24194	
289	2.880	-217.13832	1494.61523	514.74286	-294.00015	1710.85645	306.89761	-165.49745	1600.99011	331.91147	-337.44235	1579.98352	488.06323	-204.30304	1452.96460	208.32707	-446.01379	1460.78345	437.12079	-285.56107	1339.58948	372.48431	-411.82175	1451.06482	249.98102	-86.14893	1113.47131	190.50060	-583.20850	1144.08606	468.49350	-29.35888	889.86395	252.08357	-612.45099	907.45459	548.38647	-228.02174	1041.43127	359.35638	-323.23871	1026.41248	457.04462	-455.09067	965.49512	215.00291	-258.77274	449.86890	206.66298	-351.78503	624.97882	573.37524	-306.69986	101.34853	264.11270	-400.37009	227.56325	580.64502	
290	2.890	-211.39323	1494.73621	522.05975	-289.43439	1711.98767	314.12375	-159.62329	1600.75403	339.29663	-331.60675	1579.72620	495.22580	-198.81383	1452.19617	214.87492	-439.40851	1460.53186	444.93713	-278.32245	1340.05334	380.12155	-405.61612	1450.62988	257.81253	-79.28624	1113.97083	199.80945	-576.87634	1143.66858	474.82285	-20.84463	891.83856	262.15073	-607.99261	906.61511	553.75610	-222.07784	1041.07703	365.35733	-315.77087	1026.16431	464.10172	-450.21326	965.81128	223.98500	-259.09891	449.69354	207.20041	-342.28696	624.45752	578.14832	-305.14420	101.02607	264.12378	-383.84686	222.11194	601.04626	
291	2.900	-205.08499	1494.74329	529.43799	-283.45227	1711.89514	321.25800	-153.56923	1601.20544	347.26395	-325.89417	1579.51025	502.51761	-192.47380	1451.97058	222.71693	-432.27213	1459.96436	453.33517	-271.58728	1338.97290	387.26068	-399.21494	1450.32178	265.40717	-71.61422	1114.07458	208.86771	-571.09442	1143.22180	481.76608	-12.94929	893.22540	274.76477	-603.71515	906.12152	558.98633	-214.77843	1039.90454	370.20917	-307.36887	1025.58997	470.86438	-445.46399	966.03973	232.75906	-258.79446	449.07339	206.20641	-333.08307	623.28296	582.23297	-304.86047	99.80759	264.05417	-367.25073	215.35323	619.82251	
292	2.910	-199.31642	1494.33826	537.12628	-277.85889	1711.60144	328.49866	-147.90681	1601.17273	354.52582	-320.63998	1579.18274	509.81830	-186.20529	1452.10730	229.87592	-425.46765	1459.39502	461.06641	-264.89957	1338.41553	394.90790	-392.77988	1450.12463	272.92975	-64.66603	1114.36511	218.33931	-564.84967	1143.12622	488.63620	-4.45146	894.29980	285.36026	-598.97913	905.03162	564.30896	-206.88187	1039.04492	376.35880	-299.83075	1025.23950	477.90167	-439.77237	965.88092	241.14873	-258.63162	448.38516	206.71054	-324.53824	621.14587	585.57513	-304.04825	98.56131	263.47574	-350.88809	207.74013	634.72455	
